# xmcd
#
# Track frame offsets: 
#        150
#        16631
#        69110
#        110856
#
# Disc length: 1833 seconds
#
# Revision: 4
# Processed by: cddbd v1.5.1PL0 Copyright (c) Steve Scherf et al.
# Submitted via: ExactAudioCopy v0.95a5
#
DISCID=27072704
DTITLE=Ian Pooley feat. Rosanna and Zélia - Coração Tambor
DYEAR=2000
DGENRE=House
TTITLE0=Coração Tambor (Radio Edit)
TTITLE1=Coração Tambor (Swag's Disco Ritmo Dub Mix)
TTITLE2=Coração Tambor (Needs Remix)
TTITLE3=Coração Tambor (Orginal Mix)
EXTD=© 2000 V2 Records GmbH
EXTT0=
EXTT1=
EXTT2=
EXTT3=
PLAYORDER=
